# xmcd
#
# Track frame offsets:
#	150
#	14535
#	32310
#	43178
#	64050
#	73804
#	92498
#	99821
#	106044
#	119560
#	128375
#	140420
#	147455
#	167045
#	170150
#	185685
#	199490
#	208445
#	219425
#	224375
#	236645
#
# Disc length: 3400 seconds
#
# Revision: 0
# Processed by: cddbd v1.4PL0 Copyright (c) Steve Scherf et al.
# Submitted via: dBpowerAMP V4.0
#
DISCID=410d4615
DTITLE=The Crooked Jades - The Unfortunate Rake
DYEAR=2000
DGENRE=Bluegrass
TTITLE0=Old Blue Sow-Johnny Don't Get Drunk
TTITLE1=Fly Around
TTITLE2=Diamond Joe
TTITLE3=Angel of Mercy
TTITLE4=Liza Jane
TTITLE5=The Evening Train
TTITLE6=Ida Red
TTITLE7=Inchin' Along
TTITLE8=Little Painter Boy
TTITLE9=Lucy Molen
TTITLE10=Old Joe
TTITLE11=Lonely Grave
TTITLE12=Candy-Girl Slipped Down
TTITLE13=Sea Lion Woman
TTITLE14=Going to Write me a Letter
TTITLE15=I Saw a Man at The Close of Day
TTITLE16=Unfortune
TTITLE17=Waiting City Shining
TTITLE18=Fly Around (Instrumental)
TTITLE19=Tennessee Mountain Fox Chase
TTITLE20=Dressed in Brown
EXTD=
EXTT0=
EXTT1=
EXTT2=
EXTT3=
EXTT4=
EXTT5=
EXTT6=
EXTT7=
EXTT8=
EXTT9=
EXTT10=
EXTT11=
EXTT12=
EXTT13=
EXTT14=
EXTT15=
EXTT16=
EXTT17=
EXTT18=
EXTT19=
EXTT20=
PLAYORDER=
